<svg width="1920" height="888" viewBox="0 0 1920 888" fill="none" xmlns="http://www.w3.org/2000/svg">
<g clip-path="url(#clip0_1_2311)">
<rect width="1920" height="888" fill="white"/>
<g opacity="0.2">
<g opacity="0.5">
<mask id="path-1-inside-1_1_2311" fill="white">
<path fill-rule="evenodd" clip-rule="evenodd" d="M1239.86 450.321C998.244 450.321 802.375 254.452 802.375 12.8358C802.375 -228.781 998.244 -424.65 1239.86 -424.65C1481.48 -424.65 1677.35 -228.781 1677.35 12.8358C1677.35 254.452 1481.48 450.321 1239.86 450.321ZM1239.86 963C715.1 963 289.697 537.597 289.697 12.8358C289.697 -511.925 715.1 -937.328 1239.86 -937.328C1764.62 -937.328 2190.02 -511.925 2190.02 12.8359C2190.02 537.597 1764.62 963 1239.86 963Z"/>
</mask>
<path d="M1315.05 12.8358C1315.05 -28.6921 1281.39 -62.3571 1239.86 -62.3571L1239.86 963C715.1 963 289.697 537.597 289.697 12.8358L1315.05 12.8358ZM1239.86 88.0288C1281.39 88.0288 1315.05 54.3637 1315.05 12.8358L289.697 12.8358C289.697 -511.925 715.1 -937.328 1239.86 -937.328L1239.86 88.0288ZM1164.67 12.8358C1164.67 54.3637 1198.33 88.0288 1239.86 88.0288L1239.86 -937.328C1764.62 -937.328 2190.02 -511.925 2190.02 12.8359L1164.67 12.8358ZM1239.86 -62.3571C1198.33 -62.3571 1164.67 -28.6921 1164.67 12.8358L2190.02 12.8359C2190.02 537.597 1764.62 963 1239.86 963L1239.86 -62.3571ZM802.375 12.8358C802.375 254.452 998.244 450.321 1239.86 450.321L1239.86 1475.68C431.955 1475.68 -222.982 820.741 -222.982 12.8357L802.375 12.8358ZM1239.86 -424.65C998.244 -424.65 802.375 -228.781 802.375 12.8358L-222.982 12.8357C-222.982 -795.07 431.955 -1450.01 1239.86 -1450.01L1239.86 -424.65ZM1677.35 12.8358C1677.35 -228.781 1481.48 -424.65 1239.86 -424.65L1239.86 -1450.01C2047.77 -1450.01 2702.7 -795.07 2702.7 12.8359L1677.35 12.8358ZM1239.86 450.321C1481.48 450.321 1677.35 254.452 1677.35 12.8358L2702.7 12.8359C2702.7 820.741 2047.77 1475.68 1239.86 1475.68L1239.86 450.321Z" fill="url(#paint0_angular_1_2311)" mask="url(#path-1-inside-1_1_2311)"/>
</g>
</g>
<g opacity="0.3">
<g opacity="0.5">
<mask id="path-3-inside-2_1_2311" fill="white">
<path fill-rule="evenodd" clip-rule="evenodd" d="M228.852 886.974C228.852 836.619 188.03 795.797 137.675 795.797C87.3187 795.797 46.4973 836.619 46.4973 886.974C46.4973 937.33 87.3187 978.152 137.675 978.152C188.03 978.152 228.852 937.33 228.852 886.974ZM335.7 886.974C335.7 777.608 247.041 688.949 137.675 688.949C28.308 688.949 -60.351 777.608 -60.3511 886.974C-60.3511 996.341 28.308 1085 137.675 1085C247.041 1085 335.7 996.341 335.7 886.974Z"/>
</mask>
<path d="M137.675 902.646C129.02 902.646 122.003 895.629 122.003 886.974L335.7 886.974C335.7 777.608 247.041 688.949 137.675 688.949L137.675 902.646ZM153.346 886.974C153.346 895.629 146.329 902.646 137.675 902.646L137.675 688.949C28.308 688.949 -60.351 777.608 -60.351 886.974L153.346 886.974ZM137.675 871.303C146.329 871.303 153.346 878.32 153.346 886.974L-60.351 886.974C-60.3511 996.341 28.308 1085 137.675 1085L137.675 871.303ZM122.003 886.974C122.003 878.32 129.02 871.303 137.675 871.303L137.675 1085C247.041 1085 335.7 996.341 335.7 886.974L122.003 886.974ZM137.675 795.797C188.03 795.797 228.852 836.619 228.852 886.974L442.548 886.974C442.548 718.597 306.052 582.101 137.675 582.101L137.675 795.797ZM46.4973 886.974C46.4973 836.619 87.3187 795.797 137.675 795.797L137.675 582.101C-30.7027 582.1 -167.199 718.597 -167.199 886.974L46.4973 886.974ZM137.675 978.152C87.3187 978.152 46.4973 937.33 46.4973 886.974L-167.199 886.974C-167.199 1055.35 -30.7027 1191.85 137.675 1191.85L137.675 978.152ZM228.852 886.974C228.852 937.33 188.03 978.152 137.675 978.152L137.675 1191.85C306.052 1191.85 442.548 1055.35 442.548 886.974L228.852 886.974Z" fill="url(#paint1_angular_1_2311)" mask="url(#path-3-inside-2_1_2311)"/>
</g>
<g opacity="0.5">
<mask id="path-5-inside-3_1_2311" fill="white">
<path fill-rule="evenodd" clip-rule="evenodd" d="M1.57759 575.688C76.3643 575.688 136.991 636.314 136.991 711.101C136.991 785.888 76.3643 846.515 1.57758 846.515C-73.2092 846.515 -133.836 785.888 -133.836 711.101C-133.836 636.314 -73.2092 575.688 1.57759 575.688ZM1.57759 417C164.005 417 295.679 548.674 295.679 711.101C295.679 873.529 164.005 1005.2 1.57758 1005.2C-160.85 1005.2 -292.523 873.529 -292.523 711.101C-292.523 548.674 -160.85 417 1.57759 417Z"/>
</mask>
<path d="M-21.6966 711.101C-21.6966 723.955 -11.2764 734.375 1.57758 734.375L1.57759 417C164.005 417 295.679 548.674 295.679 711.101L-21.6966 711.101ZM1.57758 687.827C-11.2764 687.827 -21.6966 698.247 -21.6966 711.101L295.679 711.101C295.679 873.529 164.005 1005.2 1.57758 1005.2L1.57758 687.827ZM24.8518 711.101C24.8518 698.247 14.4316 687.827 1.57758 687.827L1.57758 1005.2C-160.85 1005.2 -292.523 873.529 -292.523 711.101L24.8518 711.101ZM1.57758 734.375C14.4316 734.375 24.8518 723.955 24.8518 711.101L-292.523 711.101C-292.523 548.674 -160.85 417 1.57759 417L1.57758 734.375ZM136.991 711.101C136.991 636.314 76.3643 575.688 1.57759 575.688L1.57759 258.313C251.646 258.313 454.366 461.033 454.366 711.101L136.991 711.101ZM1.57758 846.515C76.3643 846.515 136.991 785.888 136.991 711.101L454.366 711.101C454.366 961.169 251.646 1163.89 1.57757 1163.89L1.57758 846.515ZM-133.836 711.101C-133.836 785.888 -73.2092 846.515 1.57758 846.515L1.57757 1163.89C-248.491 1163.89 -451.211 961.169 -451.211 711.101L-133.836 711.101ZM1.57759 575.688C-73.2092 575.688 -133.836 636.314 -133.836 711.101L-451.211 711.101C-451.211 461.033 -248.491 258.313 1.57759 258.313L1.57759 575.688Z" fill="url(#paint2_angular_1_2311)" mask="url(#path-5-inside-3_1_2311)"/>
</g>
</g>
</g>
<defs>
<radialGradient id="paint0_angular_1_2311" cx="0" cy="0" r="1" gradientUnits="userSpaceOnUse" gradientTransform="translate(1239.86 12.8358) rotate(90) scale(950.164)">
<stop stop-color="#6018DC"/>
<stop offset="1" stop-color="#6018DC" stop-opacity="0"/>
</radialGradient>
<radialGradient id="paint1_angular_1_2311" cx="0" cy="0" r="1" gradientUnits="userSpaceOnUse" gradientTransform="translate(137.675 886.974) scale(198.026)">
<stop stop-color="#6018DC"/>
<stop offset="1" stop-color="#6018DC" stop-opacity="0"/>
</radialGradient>
<radialGradient id="paint2_angular_1_2311" cx="0" cy="0" r="1" gradientUnits="userSpaceOnUse" gradientTransform="translate(1.57758 711.101) rotate(-90) scale(294.101)">
<stop stop-color="#6018DC"/>
<stop offset="1" stop-color="#6018DC" stop-opacity="0"/>
</radialGradient>
<clipPath id="clip0_1_2311">
<rect width="1920" height="888" fill="white"/>
</clipPath>
</defs>
</svg>
