<svg width="188" height="40" viewBox="0 0 188 40" fill="none" xmlns="http://www.w3.org/2000/svg">
<path d="M38.2452 13.3784H1.59668V17.9639H38.2452V13.3784Z" fill="#6018DC"/>
<path d="M38.2452 5H1.59668V9.58552H38.2452V5Z" fill="#F1991D"/>
<path d="M15.5491 23.9297L18.1936 28.5152L15.5046 33.1809L12.8512 37.7664L10.2068 33.1809L5.86166 25.6571H1.59668V21.0715H8.50612L11.1506 25.6571L12.8512 28.5953L14.5519 25.6571L15.5491 23.9297Z" fill="#6018DC"/>
<path d="M19.9901 25.657H19.8477L19.9189 25.5234L19.9901 25.657Z" fill="url(#paint0_linear_1_2353)"/>
<path d="M38.2447 21.0714V25.6569H33.9798L29.6346 33.1807L26.9902 37.7663L24.3368 33.1807L19.9917 25.6569L17.3472 21.0714L15.5576 17.9639L12.9131 13.3784H18.202L20.8554 17.9639L22.6451 21.0714L25.2895 25.6569L26.9902 28.5952L28.6908 25.6569L31.3353 21.0714H38.2447Z" fill="#6018DC"/>
<path d="M68.0279 7.05908L63.5114 18.1188L63.2685 19.1284H63.1623L62.9194 18.1188L58.418 7.05908H54.0913L57.0365 14.1944L55.4348 18.1188L55.1768 19.1284H55.0857L54.8276 18.1188L50.3263 7.05908H45.9995L53.2867 24.6469H56.9834L59.1695 19.3485L61.3708 24.6469H65.0675L72.3395 7.05908H68.0279Z" fill="#050519"/>
<path d="M88.8493 10.733C88.5305 9.9891 88.0903 9.34388 87.5285 8.80494C86.9668 8.2584 86.2912 7.83332 85.517 7.52969C84.7427 7.22606 83.8926 7.06665 82.9741 7.06665H75.3833V24.6469H79.4823V19.2574H83.0348C83.9533 19.2574 84.7959 19.1132 85.5625 18.8096C86.3368 18.5135 86.9972 18.096 87.5513 17.5647C88.113 17.0333 88.5457 16.3881 88.8569 15.6442C89.1606 14.9003 89.32 14.0805 89.32 13.1848C89.32 12.2967 89.1606 11.4769 88.8493 10.733ZM85.0312 14.1944C84.9097 14.498 84.7351 14.7713 84.515 14.999C84.2949 15.2267 84.0444 15.4089 83.7483 15.5455C83.4523 15.6746 83.1411 15.7429 82.8071 15.7429H79.4823V10.5888H82.8071C83.1411 10.5888 83.4523 10.6571 83.7483 10.7937C84.0444 10.9304 84.2949 11.1201 84.515 11.3554C84.7351 11.5908 84.9097 11.864 85.0312 12.1828C85.1602 12.4941 85.2209 12.828 85.2209 13.1848C85.2209 13.5416 85.1602 13.8832 85.0312 14.1944Z" fill="#050519"/>
<path d="M91.1577 7.06665V10.5888H96.0689V24.6469H100.16V10.5888H105.072V7.06665H91.1577Z" fill="#050519"/>
<path d="M125.231 13.3746C125.004 12.5928 124.677 11.8565 124.26 11.1733C123.842 10.4901 123.341 9.8677 122.757 9.31358C122.172 8.75945 121.519 8.28123 120.806 7.87892C120.085 7.47661 119.318 7.16539 118.506 6.95285C117.686 6.7403 116.836 6.63403 115.955 6.63403C115.067 6.63403 114.217 6.7403 113.397 6.95285C112.577 7.16539 111.811 7.47661 111.105 7.87892C110.391 8.28123 109.746 8.75945 109.162 9.31358C108.585 9.8677 108.084 10.4901 107.666 11.1733C107.249 11.8565 106.922 12.5928 106.695 13.3746C106.467 14.1641 106.353 14.9763 106.353 15.8341C106.353 16.6842 106.467 17.504 106.695 18.2859C106.922 19.0753 107.249 19.804 107.666 20.4948C108.084 21.178 108.585 21.8004 109.162 22.3621C109.746 22.9238 110.391 23.4021 111.105 23.7968C111.811 24.1915 112.577 24.5027 113.397 24.7229C114.217 24.9354 115.067 25.0493 115.955 25.0493C116.836 25.0493 117.686 24.9354 118.506 24.7229C119.318 24.5027 120.085 24.1915 120.806 23.7968C121.519 23.4021 122.172 22.9238 122.757 22.3621C123.341 21.8004 123.842 21.178 124.26 20.4948C124.677 19.804 125.004 19.0753 125.231 18.2859C125.459 17.504 125.573 16.6842 125.573 15.8341C125.573 14.9763 125.459 14.1641 125.231 13.3746ZM121.056 18.1037C120.768 18.7945 120.373 19.3941 119.88 19.9027C119.386 20.4113 118.802 20.8136 118.126 21.1021C117.458 21.3905 116.73 21.5347 115.955 21.5347C115.196 21.5347 114.483 21.3905 113.815 21.1021C113.139 20.8136 112.555 20.4113 112.054 19.9027C111.553 19.3941 111.158 18.7945 110.87 18.1037C110.581 17.4053 110.437 16.6539 110.437 15.8492C110.437 15.037 110.581 14.2855 110.87 13.5872C111.158 12.8964 111.553 12.2968 112.054 11.7882C112.555 11.2796 113.139 10.8773 113.815 10.5888C114.483 10.3004 115.196 10.1562 115.955 10.1562C116.73 10.1562 117.458 10.3004 118.126 10.5888C118.802 10.8773 119.386 11.2796 119.88 11.7882C120.373 12.2968 120.768 12.8964 121.056 13.5872C121.345 14.2855 121.489 15.037 121.489 15.8492C121.489 16.6539 121.345 17.4053 121.056 18.1037Z" fill="#050519"/>
<path d="M141.255 10.5964V7.06665H128.875V24.6469H132.974V18.339H141.255V14.8244H132.974V10.5964H141.255Z" fill="#050519"/>
<path d="M156.597 10.5964V7.06665H144.208V24.6469H148.308V18.339H156.597V14.8244H148.308V10.5964H156.597Z" fill="#050519"/>
<path d="M159.549 7.06665V10.5964H171.93V7.06665H159.549ZM163.641 21.1324V17.7089H171.93V14.1944H159.549V24.6469H172.044V21.1324H163.641Z" fill="#050519"/>
<path d="M175.165 7.06665V10.5964H187.553V7.06665H175.165ZM187.667 17.7089V14.1944H175.165V24.6469H187.667V21.1324H179.264V17.7089H187.667Z" fill="#050519"/>
<path d="M59.9838 30.4033L58.3792 35.31H57.4145L56.3293 32.1656L55.2348 35.31H54.2702L52.6655 30.4033H53.6951L54.7525 33.7703L55.9026 30.4033H56.7282L57.8783 33.7703L58.9357 30.4033H59.9838Z" fill="#6018DC"/>
<path d="M68.2284 32.8427C68.2284 34.2433 67.0968 35.3656 65.687 35.3656C64.2864 35.3656 63.1548 34.2433 63.1548 32.8427C63.1548 31.4329 64.2864 30.3198 65.687 30.3198C67.0968 30.3198 68.2284 31.4421 68.2284 32.8427ZM67.236 32.8427C67.236 31.9523 66.5774 31.2288 65.687 31.2288C64.7965 31.2288 64.138 31.9523 64.138 32.8427C64.138 33.7332 64.7965 34.4567 65.687 34.4567C66.5774 34.4567 67.236 33.7332 67.236 32.8427Z" fill="#6018DC"/>
<path d="M74.0269 33.7332H73.0252V35.2822H72.0513V30.4126H74.1104C75.2049 30.4126 76.0211 31.0712 76.0211 32.0729C76.0211 32.75 75.6501 33.2787 75.0658 33.5384L76.3365 35.2822H75.1493L74.0269 33.7332ZM73.0252 32.8335H74.0733C74.6113 32.8335 75.0565 32.5367 75.0565 32.0729C75.0565 31.6091 74.6113 31.3123 74.0733 31.3123H73.0252V32.8335Z" fill="#6018DC"/>
<path d="M84.3223 32.8243C84.3223 34.2341 83.2 35.2822 81.7159 35.2822H79.8423V30.4127H81.7159C83.2093 30.4034 84.3223 31.4422 84.3223 32.8243ZM83.3298 32.8243C83.3298 31.9895 82.6064 31.3124 81.7066 31.3124H80.8069V34.3825H81.7066C82.6064 34.3825 83.3298 33.6869 83.3298 32.8243Z" fill="#6018DC"/>
<path d="M91.9655 32.1098C91.9655 33.1951 91.1307 33.9186 89.8785 33.9186H89.118V35.282H88.144V30.4124H90.0269C91.1864 30.4032 91.9655 31.0896 91.9655 32.1098ZM91.0009 32.1098C91.0009 31.6275 90.5927 31.3029 89.9806 31.3029H89.118V33.0188H89.9806C90.5927 33.0188 91.0009 32.6571 91.0009 32.1098Z" fill="#6018DC"/>
<path d="M97.4752 33.7332H96.4734V35.2822H95.4995V30.4126H97.5587C98.6531 30.4126 99.4694 31.0712 99.4694 32.0729C99.4694 32.75 99.0984 33.2787 98.514 33.5384L99.7847 35.2822H98.5975L97.4752 33.7332ZM96.4734 32.8335H97.5215C98.0595 32.8335 98.5047 32.5367 98.5047 32.0729C98.5047 31.6091 98.0595 31.3123 97.5215 31.3123H96.4734V32.8335Z" fill="#6018DC"/>
<path d="M104.264 31.3123V32.4346H106.583V33.3344H104.264V34.3825H106.871V35.2822H103.291V30.4126H106.871V31.3123H104.264Z" fill="#6018DC"/>
<path d="M114.449 31.8873H113.484C113.419 31.4328 113.132 31.1546 112.52 31.1546C111.982 31.1546 111.629 31.3586 111.629 31.7667C111.629 32.1192 111.889 32.2676 112.353 32.3604L112.928 32.4717C113.883 32.6665 114.43 33.0282 114.43 33.8352C114.43 34.7627 113.67 35.3656 112.52 35.3656C111.314 35.3656 110.479 34.7163 110.405 33.6775H111.369C111.453 34.1876 111.898 34.503 112.575 34.503C113.113 34.503 113.419 34.3082 113.419 33.965C113.419 33.7517 113.299 33.5291 112.779 33.4363L111.991 33.2879C111.026 33.1024 110.6 32.6108 110.6 31.8595C110.6 30.9319 111.342 30.329 112.445 30.329C113.271 30.3198 114.338 30.6444 114.449 31.8873Z" fill="#6018DC"/>
<path d="M121.981 31.8873H121.016C120.952 31.4328 120.664 31.1546 120.052 31.1546C119.514 31.1546 119.161 31.3586 119.161 31.7667C119.161 32.1192 119.421 32.2676 119.885 32.3604L120.46 32.4717C121.415 32.6665 121.963 33.0282 121.963 33.8352C121.963 34.7627 121.202 35.3656 120.052 35.3656C118.846 35.3656 118.011 34.7163 117.937 33.6775H118.902C118.985 34.1876 119.43 34.503 120.107 34.503C120.645 34.503 120.952 34.3082 120.952 33.965C120.952 33.7517 120.831 33.5291 120.302 33.4363L119.514 33.2879C118.549 33.1024 118.123 32.6108 118.123 31.8595C118.123 30.9319 118.865 30.329 119.968 30.329C120.794 30.3198 121.861 30.6444 121.981 31.8873Z" fill="#6018DC"/>
<path d="M134.456 31.8873H133.491C133.426 31.4328 133.139 31.1546 132.526 31.1546C131.988 31.1546 131.636 31.3586 131.636 31.7667C131.636 32.1192 131.896 32.2676 132.359 32.3604L132.935 32.4717C133.89 32.6665 134.437 33.0282 134.437 33.8352C134.437 34.7627 133.677 35.3656 132.526 35.3656C131.321 35.3656 130.486 34.7163 130.412 33.6775H131.376C131.46 34.1876 131.905 34.503 132.582 34.503C133.12 34.503 133.426 34.3082 133.426 33.965C133.426 33.7517 133.306 33.5291 132.777 33.4363L131.988 33.2879C131.024 33.1024 130.597 32.6108 130.597 31.8595C130.597 30.9319 131.339 30.329 132.443 30.329C133.268 30.3198 134.335 30.6444 134.456 31.8873Z" fill="#6018DC"/>
<path d="M143.128 32.8427C143.128 34.2433 141.996 35.3656 140.586 35.3656C139.186 35.3656 138.054 34.2433 138.054 32.8427C138.054 31.4329 139.186 30.3198 140.586 30.3198C141.996 30.3198 143.128 31.4421 143.128 32.8427ZM142.145 32.8427C142.145 31.9523 141.486 31.2288 140.596 31.2288C139.705 31.2288 139.047 31.9523 139.047 32.8427C139.047 33.7332 139.705 34.4567 140.596 34.4567C141.486 34.4567 142.145 33.7332 142.145 32.8427Z" fill="#6018DC"/>
<path d="M150.447 34.3825V35.2822H146.959V30.4126H147.933V34.3825H150.447Z" fill="#6018DC"/>
<path d="M158.191 33.0839C158.191 34.5216 157.32 35.3657 156.002 35.3657C154.695 35.3657 153.823 34.5216 153.823 33.0839V30.4033H154.797V33.0839C154.797 33.9187 155.279 34.4567 156.002 34.4567C156.726 34.4567 157.218 33.9187 157.218 33.0839V30.4033H158.191V33.0839Z" fill="#6018DC"/>
<path d="M165.976 31.3126H164.315V35.2824H163.341V31.3126H161.681V30.4128H165.966V31.3126H165.976Z" fill="#6018DC"/>
<path d="M170.511 30.4033V35.2729H169.537V30.4033H170.511Z" fill="#6018DC"/>
<path d="M179.406 32.843C179.406 34.2436 178.275 35.3659 176.865 35.3659C175.464 35.3659 174.333 34.2436 174.333 32.843C174.333 31.4331 175.464 30.3201 176.865 30.3201C178.275 30.3201 179.406 31.4424 179.406 32.843ZM178.414 32.843C178.414 31.9525 177.755 31.2291 176.865 31.2291C175.974 31.2291 175.316 31.9525 175.316 32.843C175.316 33.7334 175.974 34.4569 176.865 34.4569C177.755 34.4569 178.414 33.7334 178.414 32.843Z" fill="#6018DC"/>
<path d="M187.596 30.4036V35.2732H186.845L184.211 32.2123V35.2732H183.237V30.4036H183.96L186.632 33.5479V30.4036H187.596Z" fill="#6018DC"/>
<defs>
<linearGradient id="paint0_linear_1_2353" x1="37.0838" y1="8.46246" x2="13.9985" y2="31.5475" gradientUnits="userSpaceOnUse">
<stop stop-color="#BB499B"/>
<stop offset="0.9946" stop-color="#2B2D7A"/>
</linearGradient>
</defs>
</svg>
