<svg width="48" height="48" viewBox="0 0 48 48" fill="none" xmlns="http://www.w3.org/2000/svg">
<path fill-rule="evenodd" clip-rule="evenodd" d="M32.927 11.6345H11.8172C9.49963 11.7884 7.95485 12.1808 6.72307 13.189C4.70956 14.8406 4.14849 17.6435 3.02637 23.2517L1.56863 30.5403C-0.0438334 38.6051 -0.84987 42.6365 1.33589 45.3031C3.52185 47.97 7.6363 47.97 15.8603 47.97H28.879C37.1055 47.97 41.2175 47.97 43.4059 45.3031C45.5918 42.6338 44.7855 38.6019 43.1727 30.5382L41.7086 23.2178C40.5886 17.6322 40.0282 14.8373 38.0163 13.189C36.787 12.1791 35.2432 11.788 32.927 11.6345Z" fill="#5156FC"/>
<path d="M13.2637 10.8569H16.9069V9.10815C16.9069 7.65877 17.4827 6.26876 18.5076 5.24389C19.5324 4.21902 20.9225 3.64326 22.3718 3.64326C23.8212 3.64326 25.2112 4.21902 26.2361 5.24389C27.261 6.26876 27.8367 7.65877 27.8367 9.10815V10.8569H31.48V9.10815C31.48 6.69252 30.5204 4.37582 28.8123 2.66772C27.1042 0.959606 24.7875 0 22.3718 0C19.9562 0 17.6395 0.959606 15.9314 2.66772C14.2233 4.37582 13.2637 6.69252 13.2637 9.10815V10.8569Z" fill="#FF9B0F"/>
<rect opacity="0.5" x="7.66406" y="25.4968" width="4.63502" height="9.27003" rx="1.15875" fill="white"/>
<rect opacity="0.5" x="32.0039" y="25.4971" width="4.63502" height="9.27003" rx="1.15875" fill="white"/>
<rect x="15.2031" y="23.1782" width="13.905" height="13.905" rx="2.31751" fill="white"/>
<path d="M23.2472 27.0876L24.3799 25.9549C24.5496 25.7852 24.8247 25.7852 24.9944 25.9549L26.838 27.7985C27.0077 27.9682 27.0077 28.2433 26.838 28.413L25.1962 30.0547V34.0401C25.1962 34.2801 25.0017 34.4746 24.7617 34.4746H19.5473C19.3073 34.4746 19.1128 34.2801 19.1128 34.0401V30.0547L17.471 28.413C17.3013 28.2433 17.3013 27.9682 17.471 27.7985L19.3146 25.9549C19.4843 25.7852 19.7594 25.7852 19.9291 25.9549L21.0618 27.0876H23.2472Z" fill="#5156FC"/>
</svg>
