<svg width="20" height="20" viewBox="0 0 20 20" fill="none" xmlns="http://www.w3.org/2000/svg">
<path d="M12.25 7.75L14.5 10L12.25 12.25M7.75 12.25L5.5 10L7.75 7.75M4 18.25H16C16.5967 18.25 17.169 18.0129 17.591 17.591C18.0129 17.169 18.25 16.5967 18.25 16V4C18.25 3.40326 18.0129 2.83097 17.591 2.40901C17.169 1.98705 16.5967 1.75 16 1.75H4C3.40326 1.75 2.83097 1.98705 2.40901 2.40901C1.98705 2.83097 1.75 3.40326 1.75 4V16C1.75 16.5967 1.98705 17.169 2.40901 17.591C2.83097 18.0129 3.40326 18.25 4 18.25Z" stroke="#6018DC" stroke-width="2" stroke-linecap="round" stroke-linejoin="round"/>
</svg>
