<svg width="20" height="22" viewBox="0 0 20 22" fill="none" xmlns="http://www.w3.org/2000/svg">
<path d="M11.5998 20.076L17.0598 16.924C17.6438 16.587 17.9348 16.419 18.1468 16.184C18.3344 15.9758 18.4762 15.7305 18.5628 15.464C18.6598 15.163 18.6598 14.827 18.6598 14.157V7.843C18.6598 7.173 18.6598 6.837 18.5618 6.536C18.4752 6.2695 18.3334 6.0242 18.1458 5.816C17.9358 5.582 17.6458 5.414 17.0668 5.08L11.5998 1.924C11.0168 1.587 10.7258 1.419 10.4158 1.354C10.1416 1.29568 9.85811 1.29568 9.58384 1.354C9.27384 1.419 8.98284 1.587 8.39984 1.924L2.93784 5.077C2.35584 5.413 2.06484 5.581 1.85384 5.816C1.66627 6.0242 1.52454 6.2695 1.43784 6.536C1.33984 6.838 1.33984 7.174 1.33984 7.847V14.152C1.33984 14.825 1.33984 15.162 1.43784 15.463C1.52454 15.7295 1.66627 15.9748 1.85384 16.183C2.06484 16.419 2.35684 16.587 2.93884 16.923L8.39884 20.076C8.98284 20.413 9.27384 20.581 9.58384 20.646C9.85784 20.705 10.1418 20.705 10.4158 20.646C10.7258 20.581 11.0168 20.413 11.5998 20.076Z" stroke="#6018DC" stroke-width="2" stroke-linecap="round" stroke-linejoin="round"/>
<path d="M7 11C7 11.7956 7.31607 12.5587 7.87868 13.1213C8.44129 13.6839 9.20435 14 10 14C10.7956 14 11.5587 13.6839 12.1213 13.1213C12.6839 12.5587 13 11.7956 13 11C13 10.2044 12.6839 9.44129 12.1213 8.87868C11.5587 8.31607 10.7956 8 10 8C9.20435 8 8.44129 8.31607 7.87868 8.87868C7.31607 9.44129 7 10.2044 7 11Z" stroke="#6018DC" stroke-width="2" stroke-linecap="round" stroke-linejoin="round"/>
</svg>
