<svg width="22" height="20" viewBox="0 0 22 20" fill="none" xmlns="http://www.w3.org/2000/svg">
<path d="M16.7857 0.571426C16.9141 0.571507 17.0408 0.600433 17.1565 0.656067C17.2723 0.711702 17.374 0.792623 17.4543 0.892855L17.5185 0.983712L21.1614 6.98371C21.2451 7.12143 21.2884 7.27997 21.2861 7.44113C21.2838 7.6023 21.2361 7.75955 21.1485 7.89485L21.0825 7.98228L11.654 19.1251C11.5792 19.2134 11.4873 19.2857 11.3839 19.3375C11.2804 19.3894 11.1676 19.4197 11.0521 19.4268C10.9366 19.4338 10.8209 19.4174 10.7119 19.3785C10.6029 19.3397 10.5029 19.2791 10.418 19.2006L10.346 19.1251L0.917397 7.98228C0.813393 7.85925 0.746167 7.7094 0.723427 7.54992C0.700686 7.39043 0.723352 7.22776 0.788825 7.08057L0.83854 6.98371L4.4814 0.983712C4.54799 0.873895 4.63841 0.780446 4.74597 0.710271C4.85353 0.640096 4.97549 0.594989 5.10283 0.578283L5.21425 0.571426H16.7857ZM14.0128 8.28571H7.98625L10.9991 15.7189L14.0128 8.28571ZM18.5805 8.28571H15.8625L13.3623 14.4529L18.5805 8.28571ZM6.13654 8.28571H3.41854L8.63597 14.4511L6.13654 8.28571ZM7.29197 2.28571H5.69511L3.09283 6.57143H6.06711L7.29197 2.28571ZM12.9251 2.28571H9.07397L7.84911 6.57143H14.15L12.9251 2.28571ZM16.304 2.28571H14.7071L15.932 6.57143H18.9063L16.304 2.28571Z" fill="#6018DC"/>
</svg>
