<svg width="22" height="20" viewBox="0 0 22 20" fill="none" xmlns="http://www.w3.org/2000/svg">
<path d="M15.0234 7.348H20.0154L16.8344 4.165C15.8103 3.14087 14.5346 2.40439 13.1356 2.02961C11.7366 1.65482 10.2636 1.65493 8.86464 2.02992C7.4657 2.40492 6.19014 3.14159 5.16617 4.16587C4.14221 5.19015 3.40594 6.46595 3.03138 7.865M1.98537 17.644V12.652M1.98537 12.652H6.97738M1.98537 12.652L5.16537 15.835C6.18949 16.8591 7.46517 17.5956 8.86416 17.9704C10.2632 18.3452 11.7362 18.3451 13.1351 17.9701C14.534 17.5951 15.8096 16.8584 16.8336 15.8341C17.8575 14.8099 18.5938 13.5341 18.9684 12.135M20.0154 2.356V7.346" stroke="#6018DC" stroke-width="2" stroke-linecap="round" stroke-linejoin="round"/>
</svg>
